<svg version="1.1" viewBox="0 0 16 16" xmlns="http://www.w3.org/2000/svg">
 <path d="m8 1a6.9994 6.9994 0 0 0-7 7 6.9994 6.9994 0 0 0 7 7 6.9994 6.9994 0 0 0 7-7 6.9994 6.9994 0 0 0-7-7zm2.403 4.3703c0.11801 0 0.21912 0.042328 0.30171 0.12497l0.60163 0.60163c0.08259 0.082641 0.12502 0.18191 0.12497 0.29993 0 0.11807-0.04239 0.21906-0.12497 0.30171l-3.8061 3.8061c-0.082641 0.08259-0.18369 0.12497-0.30171 0.12497-0.11807 0-0.21734-0.04233-0.29993-0.12497l-0.60342-0.60163-1.6014-1.6014c-0.082641-0.082588-0.12497-0.1837-0.12497-0.30171 0-0.11807 0.042328-0.21906 0.12497-0.30171l0.60163-0.60164c0.082641-0.082641 0.18364-0.12319 0.30171-0.12319 0.11801 0 0.21728 0.040543 0.29993 0.12319l1.3014 1.3068 2.9047-2.9082c0.082586-0.082641 0.18186-0.12497 0.29993-0.12497z" fill="#363636" fill-rule="evenodd" stroke-width="1.1667"/>
</svg>
